<svg width="24" height="24" viewBox="0 0 24 24" fill="none" xmlns="http://www.w3.org/2000/svg">
<g id="Group 73">
<rect id="Social Media Icon" x="-6.10352e-05" width="24" height="24" rx="4" fill="#B4B9C9"/>
<path id="LinkedIn" d="M5.99994 7.61333C5.99994 7.22852 6.13508 6.91106 6.40534 6.66095C6.67561 6.41082 7.02697 6.28577 7.4594 6.28577C7.88411 6.28577 8.22773 6.40889 8.49029 6.65517C8.76055 6.90914 8.89569 7.24006 8.89569 7.64796C8.89569 8.01737 8.76442 8.3252 8.50187 8.57148C8.2316 8.82545 7.87639 8.95243 7.43623 8.95243H7.42465C6.99994 8.95243 6.65631 8.82545 6.39376 8.57148C6.13121 8.31751 5.99994 7.99812 5.99994 7.61333ZM6.15052 17.7143V10.0029H8.72195V17.7143H6.15052ZM10.1467 17.7143H12.7181V13.4084C12.7181 13.1391 12.749 12.9313 12.8107 12.785C12.9189 12.5234 13.083 12.3021 13.303 12.1213C13.5231 11.9404 13.7992 11.85 14.1312 11.85C14.9961 11.85 15.4285 12.431 15.4285 13.5931V17.7143H17.9999V13.293C17.9999 12.154 17.7297 11.2901 17.1891 10.7013C16.6486 10.1126 15.9343 9.81823 15.0463 9.81823C14.0501 9.81823 13.2741 10.2454 12.7181 11.0996V11.1227H12.7065L12.7181 11.0996V10.0029H10.1467C10.1621 10.2492 10.1698 11.015 10.1698 12.3002C10.1698 13.5854 10.1621 15.3901 10.1467 17.7143Z" fill="white"/>
</g>
</svg>
