<svg width="16" height="16" viewBox="0 0 16 16" fill="none" xmlns="http://www.w3.org/2000/svg">
<circle cx="8" cy="8" r="8" fill="#575B63"/>
<path d="M12.4562 10.7796C12.2998 11.062 12.052 11.2032 11.7157 11.2032C11.5828 11.2032 11.4568 11.1713 11.3392 11.1091C11.0416 10.9596 10.8921 10.7173 10.8921 10.3796C10.8921 10.2467 10.9239 10.1166 10.9862 9.99202C11.1426 9.69442 11.3862 9.54492 11.7157 9.54492C11.8486 9.54492 11.9787 9.57676 12.1033 9.63905C12.4009 9.80377 12.5504 10.0502 12.5504 10.3796C12.5504 10.5208 12.5185 10.6537 12.4562 10.7796Z" fill="#F7F7F7"/>
<path d="M12.0228 13.2285C11.908 13.4486 11.7294 13.641 11.4899 13.8029C10.6248 14.3885 9.19633 13.9843 8.75062 13.0444C8.59559 12.7177 8.56652 12.3288 8.57344 11.973C8.60389 10.4615 8.61773 8.94997 8.61773 7.43843C8.61773 7.35953 8.61358 7.28893 8.60527 7.22665C8.55129 6.63836 8.28414 6.34491 7.8066 6.34491C7.68063 6.34491 7.55052 6.37952 7.41764 6.45011C6.99407 6.67851 6.78229 7.13667 6.78229 7.826V10.3535C6.78229 10.5155 6.91518 10.6484 7.07713 10.6484C7.12419 10.6484 7.1671 10.6525 7.20586 10.6608C7.30829 10.6761 7.3595 10.7743 7.3595 10.9543H4.8901C4.72815 10.9543 4.59527 10.8214 4.59527 10.6594V10.6484C4.65064 10.6484 4.70462 10.6456 4.75999 10.6373C5.11296 10.6055 5.28875 10.4061 5.28875 10.0379V3.97379C5.28875 3.80077 5.14064 3.6665 4.969 3.68034C4.90533 3.68588 4.84166 3.69142 4.77798 3.69695C4.44024 3.72602 3.99314 3.76478 3.74261 4.02639C3.67893 4.09283 3.63049 4.16204 3.59865 4.23264C3.54051 4.36137 3.59173 4.64789 3.74953 4.81261C3.95577 5.02439 4.07343 5.04516 4.1025 5.15312C4.12464 5.27493 4.10942 5.39674 4.05543 5.51855C3.94055 5.77601 3.75645 5.89228 3.50176 5.8646C3.43808 5.85214 3.38133 5.83553 3.3315 5.81339C3.0948 5.70819 2.96607 5.47841 2.94254 5.12544C2.92455 4.87767 2.97438 4.62021 3.09342 4.35583C3.33981 3.80215 3.84088 3.46856 4.59527 3.35229C4.98561 3.308 5.37734 3.2817 5.77045 3.27201C5.96977 3.26785 6.17048 3.26785 6.3698 3.27201C6.48746 3.27478 6.7643 3.21941 6.78229 3.38274C6.78645 3.42704 6.78229 3.47548 6.78229 3.51978V6.77955C6.83766 6.6702 6.9041 6.56085 6.983 6.45011C7.3595 5.96426 7.86473 5.72203 8.50008 5.72203C8.70355 5.72203 8.8918 5.75248 9.06483 5.81615C9.76246 6.05008 10.1113 6.65774 10.1113 7.63775C10.1113 8.61776 10.1307 9.63652 10.1196 10.6345C10.1196 10.7508 10.0739 11.5287 10.0614 12.2457C10.0587 12.362 10.0587 12.4395 10.0587 12.4935C10.0587 12.5599 10.0587 12.6056 10.0587 12.6651C10.0573 12.9918 10.0435 13.3116 10.204 13.6078C10.2234 13.6438 10.2455 13.6798 10.2801 13.7005C10.3383 13.7379 10.431 13.742 10.4975 13.7503C10.5861 13.7614 10.6774 13.7614 10.7646 13.7393C10.8546 13.7171 10.9307 13.6839 10.9958 13.6396C11.1134 13.5607 11.1467 13.4098 11.0996 13.1856C11.0387 12.9101 11.0221 12.7164 11.0484 12.607C11.0511 12.5973 11.0539 12.5876 11.0581 12.5779C11.1037 12.4686 11.1785 12.3786 11.2851 12.3066C11.5176 12.1475 11.7349 12.1475 11.937 12.3039C11.9855 12.3468 12.0242 12.3911 12.0561 12.4367C12.2014 12.6513 12.1903 12.9143 12.0228 13.2271V13.2285Z" fill="#F7F7F7"/>
</svg>
