<svg width="24" height="24" viewBox="0 0 24 24" fill="none" xmlns="http://www.w3.org/2000/svg">
<g id="Social Media Icon Square/Instagram">
<rect id="Social Media Icon" x="-6.10352e-05" width="24" height="24" rx="4" fill="#B4B9C9"/>
<path id="Instagram" fill-rule="evenodd" clip-rule="evenodd" d="M5.99994 12C5.99994 9.60324 5.99994 8.40486 6.57107 7.5417C6.8261 7.15626 7.1562 6.82616 7.54164 6.57113C8.4048 6 9.60318 6 11.9999 6C14.3967 6 15.5951 6 16.4582 6.57113C16.8437 6.82616 17.1738 7.15626 17.4288 7.5417C17.9999 8.40486 17.9999 9.60324 17.9999 12C17.9999 14.3968 17.9999 15.5951 17.4288 16.4583C17.1738 16.8437 16.8437 17.1738 16.4582 17.4289C15.5951 18 14.3967 18 11.9999 18C9.60318 18 8.4048 18 7.54164 17.4289C7.1562 17.1738 6.8261 16.8437 6.57107 16.4583C5.99994 15.5951 5.99994 14.3968 5.99994 12ZM15.1061 12.0002C15.1061 13.7157 13.7154 15.1064 11.9998 15.1064C10.2843 15.1064 8.89356 13.7157 8.89356 12.0002C8.89356 10.2846 10.2843 8.89388 11.9998 8.89388C13.7154 8.89388 15.1061 10.2846 15.1061 12.0002ZM11.9998 14.0555C13.135 14.0555 14.0552 13.1353 14.0552 12.0002C14.0552 10.865 13.135 9.94482 11.9998 9.94482C10.8647 9.94482 9.9445 10.865 9.9445 12.0002C9.9445 13.1353 10.8647 14.0555 11.9998 14.0555ZM15.2288 9.4677C15.6319 9.4677 15.9587 9.14092 15.9587 8.73782C15.9587 8.33471 15.6319 8.00793 15.2288 8.00793C14.8257 8.00793 14.4989 8.33471 14.4989 8.73782C14.4989 9.14092 14.8257 9.4677 15.2288 9.4677Z" fill="white"/>
</g>
</svg>
