<?xml version="1.0" encoding="UTF-8"?>
<svg id="Layer_1" data-name="Layer 1" xmlns="http://www.w3.org/2000/svg" viewBox="0 0 232 88">
  <defs>
    <style>
      .cls-1 {
        fill: none;
      }

      .cls-2 {
        fill: #6d758f;
      }
    </style>
  </defs>
  <path class="cls-2" d="m86.5,23.66c-2.77-1.19-5.92-1.79-9.43-1.79-6.4,0-11.38,2.18-14.95,6.55-2.72,3.39-4.08,7.61-4.08,12.65,0,8.22,3.09,13.94,9.26,17.17,2.95,1.53,6.29,2.29,10.03,2.29,6.63,0,11.38-2.32,14.27-6.97.33-.48.61-.98.86-1.49.3-.59,0-1.3-.62-1.51h-.03c-.51-.18-1.05.06-1.3.53-1.6,3-3.95,5.07-7.06,6.21-1.36.51-2.75.77-4.17.77-4.53,0-7.45-2.89-8.75-8.67-.45-2.1-.72-4.55-.82-7.35-.02-.62.49-1.13,1.11-1.11l6.68.22c9.12.28,14.41-1.16,15.89-4.33.34-.8.51-1.67.51-2.64,0-4.81-2.47-8.32-7.4-10.53Zm-6.28,14.61c-1.14.4-2.84.54-5.1.43l-5.44-.26c.4-9.4,2.86-14.19,7.39-14.36,3.63.12,5.47,3.2,5.53,9.26,0,2.67-.8,4.31-2.38,4.93Z"/>
  <path class="cls-1" d="m82.6,33.34c0,2.67-.8,4.31-2.38,4.93-1.14.4-2.84.54-5.1.43l-5.44-.26c.4-9.4,2.86-14.19,7.39-14.36,3.63.12,5.47,3.2,5.53,9.26Z"/>
  <path class="cls-2" d="m113.24,57.56c.74.11,1.1.82,1.1,2.12h-19.8c-.61,0-1.1-.49-1.1-1.1v-.05c0-.57.45-1.05,1.02-1.1.33-.03.65-.07.94-.13,1.98-.34,2.97-1.75,2.97-4.25v-26.59c0-.61-.49-1.1-1.1-1.1h-2.72c-.61,0-1.1-.49-1.1-1.1h0c0-.61.49-1.1,1.1-1.1h13.51c.61,0,1.1.49,1.1,1.1v32.12c0,.61.49,1.1,1.1,1.1h2.04c.34,0,.65.03.93.08Zm-4.16-42.48c-1.19,2.1-3.03,3.14-5.52,3.14-1.02,0-2.01-.25-2.97-.76-2.21-1.13-3.31-2.94-3.31-5.44,0-1.08.25-2.09.76-3.06,1.25-2.21,3.09-3.31,5.52-3.31,1.08,0,2.09.28,3.06.85,2.21,1.19,3.31,3.03,3.31,5.52,0,1.08-.28,2.1-.85,3.06Z"/>
  <path class="cls-2" d="m135.31,57.56c.74.11,1.1.82,1.1,2.12h-22.6c-.61,0-1.1-.49-1.1-1.1v-.02c0-.59.47-1.08,1.06-1.1,1.11-.04,2.03-.15,2.77-.32,1.87-.51,2.8-1.92,2.8-4.25V7.77c0-.61-.49-1.1-1.1-1.1h-4.42c-.61,0-1.1-.49-1.1-1.1h0c0-.61.49-1.1,1.1-1.1h15.21c.61,0,1.1.49,1.1,1.1v50.81c0,.61.49,1.1,1.1,1.1h3.14c.34,0,.65.03.93.08Z"/>
  <path class="cls-2" d="m146.16,72.94c2.44-.89,4.98-4.56,7.64-11.03.11-.27.11-.59-.02-.86l-16.09-35.15c-.17-.38-.55-.62-.97-.62h-1.82c-.59,0-1.06-.48-1.06-1.06h0c0-.59.48-1.06,1.06-1.06h17.84c.59,0,1.06.48,1.06,1.06h0c0,.59-.48,1.06-1.06,1.06h-2.5c-.76,0-1.28.78-.97,1.48l8.61,19.85c.38.87,1.62.85,1.96-.04l7.76-19.85c.27-.7-.24-1.45-.99-1.45h-3.75c-.59,0-1.06-.48-1.06-1.06h0c0-.59.48-1.06,1.06-1.06h12.11c0,.28-.03.57-.08.85-.11.85-.79,1.27-2.04,1.27-.89.11-1.8.9-2.74,2.36-.04.07-.08.14-.11.21l-12.7,32.94c-1.08,2.83-2.21,5.24-3.4,7.22-3.12,5.49-7.05,8.24-11.81,8.24-2.1,0-3.94-.42-5.52-1.27-2.27-1.19-3.4-2.72-3.4-4.59,0-.4.06-.82.17-1.27.57-1.76,1.87-2.63,3.91-2.63.92,0,1.74.23,2.45.7.06.04.12.08.18.14.6.55,1.28,1.77,2.04,3.67.62,1.53,1.44,2.29,2.46,2.29.57,0,1.16-.11,1.78-.34Z"/>
  <path class="cls-2" d="m184.99,56.51l-.25,2.16c-.07.58-.56,1.02-1.14,1.02h-10.83c-.63,0-1.15-.51-1.15-1.15v-.05c0-.6.46-1.09,1.06-1.14.34-.03.67-.07.98-.13,1.87-.4,2.8-1.81,2.8-4.25V7.9c0-.63-.51-1.15-1.15-1.15h-2.55c-.63,0-1.15-.51-1.15-1.15h0c0-.63.51-1.15,1.15-1.15h13.34c.63,0,1.15.51,1.15,1.15v21.01c0,1.08,1.37,1.56,2.04.71,2.81-3.59,6.52-5.4,11.13-5.45,2.89,0,5.52.82,7.9,2.46,4.59,3.23,6.88,8.53,6.88,15.89,0,5.66-1.47,10.34-4.42,14.02-3.34,4.19-7.79,6.29-13.34,6.29-4.21-.05-7.7-1.6-10.49-4.66-.66-.73-1.87-.34-1.98.64Zm7.2-29.11c-3.29,2.66-4.93,7.87-4.93,15.63,0,3,.31,5.64.93,7.9,1.3,4.87,3.79,7.31,7.48,7.31,5.21-.06,7.84-5.66,7.9-16.82,0-10.2-2.44-15.35-7.31-15.46-1.47,0-2.83.48-4.08,1.44Z"/>
  <path class="cls-2" d="m226.4,57.05c-1.13,2.04-2.92,3.06-5.35,3.06-.96,0-1.87-.23-2.72-.68-2.15-1.08-3.23-2.83-3.23-5.27,0-.96.23-1.9.68-2.8,1.13-2.15,2.89-3.23,5.27-3.23.96,0,1.9.23,2.8.68,2.15,1.19,3.23,2.97,3.23,5.35,0,1.02-.23,1.98-.68,2.89Z"/>
  <path class="cls-2" d="m69.03,78.26c-.83,1.59-2.12,2.98-3.85,4.15-6.25,4.23-16.57,1.31-19.79-5.48-1.12-2.36-1.33-5.17-1.28-7.74.22-10.92.32-21.84.32-32.76,0-.57-.03-1.08-.09-1.53-.39-4.25-2.32-6.37-5.77-6.37-.91,0-1.85.25-2.81.76-3.06,1.65-4.59,4.96-4.59,9.94v18.26c0,1.17.96,2.13,2.13,2.13.34,0,.65.03.93.09.74.11,1.11.82,1.11,2.12h-17.84c-1.17,0-2.13-.96-2.13-2.13v-.08c.4,0,.79-.02,1.19-.08,2.55-.23,3.82-1.67,3.82-4.33V11.4c0-1.25-1.07-2.22-2.31-2.12-.46.04-.92.08-1.38.12-2.44.21-5.67.49-7.48,2.38-.46.48-.81.98-1.04,1.49-.42.93-.05,3,1.09,4.19,1.49,1.53,2.34,1.68,2.55,2.46.16.88.05,1.76-.34,2.64-.83,1.86-2.16,2.7-4,2.5-.46-.09-.87-.21-1.23-.37-1.71-.76-2.64-2.42-2.81-4.97-.13-1.79.23-3.65,1.09-5.56,1.78-4,5.4-6.41,10.85-7.25,2.82-.32,5.65-.51,8.49-.58,1.44-.03,2.89-.03,4.33,0,.85.02,2.85-.38,2.98.8.03.32,0,.67,0,.99v23.55c.4-.79.88-1.58,1.45-2.38,2.72-3.51,6.37-5.26,10.96-5.26,1.47,0,2.83.22,4.08.68,5.04,1.69,7.56,6.08,7.56,13.16s.14,14.44.06,21.65c0,.84-.33,6.46-.42,11.64-.02.84-.02,1.4-.02,1.79,0,.48,0,.81,0,1.24-.01,2.36-.11,4.67,1.05,6.81.14.26.3.52.55.67.42.27,1.09.3,1.57.36.64.08,1.3.08,1.93-.08.65-.16,1.2-.4,1.67-.72.85-.57,1.09-1.66.75-3.28-.44-1.99-.56-3.39-.37-4.18.02-.07.04-.14.07-.21.33-.79.87-1.44,1.64-1.96,1.68-1.15,3.25-1.15,4.71-.02.35.31.63.63.86.96,1.05,1.55.97,3.45-.24,5.71Z"/>
</svg>