<svg width="24" height="24" viewBox="0 0 24 24" fill="none" xmlns="http://www.w3.org/2000/svg">
<g id="Group 73">
<rect id="Social Media Icon" x="-6.10352e-05" width="24" height="24" rx="4" fill="#B4B9C9"/>
<g id="Dribbble">
<path id="Subtract" fill-rule="evenodd" clip-rule="evenodd" d="M7.5251 15.9568C6.51791 14.8154 6.01431 13.4964 6.01431 12C6.01431 11.9616 6.01672 11.9137 6.02151 11.8561C6.02631 11.7986 6.0287 11.7506 6.0287 11.7122C6.21096 11.7218 6.48913 11.7266 6.86323 11.7266C8.78171 11.7266 10.5659 11.4628 12.2158 10.9353C12.3501 11.2038 12.4891 11.506 12.633 11.8417C11.6834 12.0528 10.7098 12.5659 9.71215 13.3813C8.71456 14.1966 7.98554 15.0552 7.5251 15.9568ZM7.13661 10.5468C6.72415 10.5468 6.4124 10.5372 6.20136 10.518C6.422 9.69305 6.80329 8.94004 7.34525 8.25899C7.88722 7.57794 8.5371 7.04557 9.29489 6.66187C10.1678 7.52518 10.9688 8.60432 11.6978 9.89928C10.2589 10.3309 8.73854 10.5468 7.13661 10.5468ZM12.0143 18C10.6522 18 9.42919 17.5779 8.34525 16.7338C8.7769 15.8801 9.44118 15.0647 10.3381 14.2878C11.2349 13.5108 12.1246 13.0264 13.0071 12.8345C13.5635 14.3693 13.9376 15.9568 14.1294 17.5971C13.4292 17.8657 12.7242 18 12.0143 18ZM12.892 9.46763C12.1726 8.16306 11.3908 7.07435 10.5467 6.20144C11.0359 6.06715 11.5251 6 12.0143 6C13.4532 6 14.7289 6.46043 15.8417 7.38129C15.1798 8.22542 14.1966 8.92086 12.892 9.46763ZM13.8992 11.6547C13.717 11.1846 13.5539 10.7962 13.41 10.4892C14.8968 9.83694 15.952 9.04557 16.5755 8.11511C17.4388 9.1319 17.9088 10.2926 17.9855 11.5971C17.4004 11.5683 16.8105 11.554 16.2158 11.554C15.3812 11.554 14.609 11.5875 13.8992 11.6547ZM15.2517 17.036C15.0791 15.5396 14.7481 14.0815 14.2589 12.6619C14.9304 12.6139 15.5299 12.5899 16.0575 12.5899C16.633 12.5899 17.2709 12.6139 17.9711 12.6619C17.8752 13.554 17.5875 14.3837 17.1078 15.1511C16.6282 15.9185 16.0095 16.5468 15.2517 17.036Z" fill="white"/>
</g>
</g>
</svg>
